<mxfile host="app.diagrams.net" agent="Mozilla/5.0 (Windows NT 10.0; Win64; x64) AppleWebKit/537.36 (KHTML, like Gecko) Chrome/134.0.0.0 Safari/537.36 Edg/134.0.0.0" version="26.1.0">
  <diagram id="C5RBs43oDa-KdzZeNtuy" name="Page-1">
    <mxGraphModel dx="1163" dy="636" grid="1" gridSize="10" guides="1" tooltips="1" connect="1" arrows="1" fold="1" page="1" pageScale="1" pageWidth="827" pageHeight="1169" math="0" shadow="0">
      <root>
        <mxCell id="WIyWlLk6GJQsqaUBKTNV-0" />
        <mxCell id="WIyWlLk6GJQsqaUBKTNV-1" parent="WIyWlLk6GJQsqaUBKTNV-0" />
        <mxCell id="zCwe8vPM_0zqtgJZevNM-2" style="edgeStyle=orthogonalEdgeStyle;rounded=0;orthogonalLoop=1;jettySize=auto;html=1;exitX=0.5;exitY=1;exitDx=0;exitDy=0;entryX=0.5;entryY=0;entryDx=0;entryDy=0;" edge="1" parent="WIyWlLk6GJQsqaUBKTNV-1" source="zCwe8vPM_0zqtgJZevNM-0">
          <mxGeometry relative="1" as="geometry">
            <mxPoint x="414" y="180" as="targetPoint" />
          </mxGeometry>
        </mxCell>
        <mxCell id="zCwe8vPM_0zqtgJZevNM-0" value="Inicio" style="ellipse;whiteSpace=wrap;html=1;aspect=fixed;" vertex="1" parent="WIyWlLk6GJQsqaUBKTNV-1">
          <mxGeometry x="374" y="60" width="80" height="80" as="geometry" />
        </mxCell>
        <mxCell id="zCwe8vPM_0zqtgJZevNM-5" value="" style="edgeStyle=orthogonalEdgeStyle;rounded=0;orthogonalLoop=1;jettySize=auto;html=1;" edge="1" parent="WIyWlLk6GJQsqaUBKTNV-1" source="zCwe8vPM_0zqtgJZevNM-3" target="zCwe8vPM_0zqtgJZevNM-4">
          <mxGeometry relative="1" as="geometry" />
        </mxCell>
        <mxCell id="zCwe8vPM_0zqtgJZevNM-3" value="Ingresar el número X" style="shape=parallelogram;perimeter=parallelogramPerimeter;whiteSpace=wrap;html=1;fixedSize=1;" vertex="1" parent="WIyWlLk6GJQsqaUBKTNV-1">
          <mxGeometry x="341" y="180" width="146" height="80" as="geometry" />
        </mxCell>
        <mxCell id="zCwe8vPM_0zqtgJZevNM-8" style="edgeStyle=orthogonalEdgeStyle;rounded=0;orthogonalLoop=1;jettySize=auto;html=1;exitX=0.5;exitY=1;exitDx=0;exitDy=0;entryX=0.5;entryY=0;entryDx=0;entryDy=0;" edge="1" parent="WIyWlLk6GJQsqaUBKTNV-1" source="zCwe8vPM_0zqtgJZevNM-4" target="zCwe8vPM_0zqtgJZevNM-7">
          <mxGeometry relative="1" as="geometry" />
        </mxCell>
        <mxCell id="zCwe8vPM_0zqtgJZevNM-9" style="edgeStyle=orthogonalEdgeStyle;rounded=0;orthogonalLoop=1;jettySize=auto;html=1;exitX=1;exitY=0.5;exitDx=0;exitDy=0;entryX=0;entryY=0.5;entryDx=0;entryDy=0;" edge="1" parent="WIyWlLk6GJQsqaUBKTNV-1" source="zCwe8vPM_0zqtgJZevNM-4" target="zCwe8vPM_0zqtgJZevNM-6">
          <mxGeometry relative="1" as="geometry" />
        </mxCell>
        <mxCell id="zCwe8vPM_0zqtgJZevNM-4" value="¿X%5 y X%3 es igual a 0?" style="rhombus;whiteSpace=wrap;html=1;" vertex="1" parent="WIyWlLk6GJQsqaUBKTNV-1">
          <mxGeometry x="322" y="300" width="184" height="170" as="geometry" />
        </mxCell>
        <mxCell id="zCwe8vPM_0zqtgJZevNM-6" value="Decir: &quot;Margarita&quot;." style="shape=parallelogram;perimeter=parallelogramPerimeter;whiteSpace=wrap;html=1;fixedSize=1;" vertex="1" parent="WIyWlLk6GJQsqaUBKTNV-1">
          <mxGeometry x="560" y="332.5" width="180" height="105" as="geometry" />
        </mxCell>
        <mxCell id="zCwe8vPM_0zqtgJZevNM-13" style="edgeStyle=orthogonalEdgeStyle;rounded=0;orthogonalLoop=1;jettySize=auto;html=1;exitX=0.5;exitY=1;exitDx=0;exitDy=0;entryX=0.5;entryY=0;entryDx=0;entryDy=0;" edge="1" parent="WIyWlLk6GJQsqaUBKTNV-1" source="zCwe8vPM_0zqtgJZevNM-7" target="zCwe8vPM_0zqtgJZevNM-12">
          <mxGeometry relative="1" as="geometry" />
        </mxCell>
        <mxCell id="zCwe8vPM_0zqtgJZevNM-16" style="edgeStyle=orthogonalEdgeStyle;rounded=0;orthogonalLoop=1;jettySize=auto;html=1;exitX=1;exitY=0.5;exitDx=0;exitDy=0;entryX=0;entryY=0.5;entryDx=0;entryDy=0;" edge="1" parent="WIyWlLk6GJQsqaUBKTNV-1" source="zCwe8vPM_0zqtgJZevNM-7" target="zCwe8vPM_0zqtgJZevNM-14">
          <mxGeometry relative="1" as="geometry" />
        </mxCell>
        <mxCell id="zCwe8vPM_0zqtgJZevNM-7" value="¿X%6 y X%7 es igual a 0?" style="rhombus;whiteSpace=wrap;html=1;" vertex="1" parent="WIyWlLk6GJQsqaUBKTNV-1">
          <mxGeometry x="328" y="510" width="171" height="180" as="geometry" />
        </mxCell>
        <mxCell id="zCwe8vPM_0zqtgJZevNM-10" value="Sí" style="text;html=1;align=center;verticalAlign=middle;whiteSpace=wrap;rounded=0;" vertex="1" parent="WIyWlLk6GJQsqaUBKTNV-1">
          <mxGeometry x="500" y="350" width="60" height="30" as="geometry" />
        </mxCell>
        <mxCell id="zCwe8vPM_0zqtgJZevNM-11" value="No" style="text;html=1;align=center;verticalAlign=middle;whiteSpace=wrap;rounded=0;" vertex="1" parent="WIyWlLk6GJQsqaUBKTNV-1">
          <mxGeometry x="354" y="470" width="60" height="30" as="geometry" />
        </mxCell>
        <mxCell id="zCwe8vPM_0zqtgJZevNM-17" style="edgeStyle=orthogonalEdgeStyle;rounded=0;orthogonalLoop=1;jettySize=auto;html=1;exitX=1;exitY=0.5;exitDx=0;exitDy=0;entryX=0;entryY=0.5;entryDx=0;entryDy=0;" edge="1" parent="WIyWlLk6GJQsqaUBKTNV-1" source="zCwe8vPM_0zqtgJZevNM-12" target="zCwe8vPM_0zqtgJZevNM-15">
          <mxGeometry relative="1" as="geometry" />
        </mxCell>
        <mxCell id="zCwe8vPM_0zqtgJZevNM-22" style="edgeStyle=orthogonalEdgeStyle;rounded=0;orthogonalLoop=1;jettySize=auto;html=1;exitX=0.5;exitY=1;exitDx=0;exitDy=0;entryX=0.5;entryY=0;entryDx=0;entryDy=0;" edge="1" parent="WIyWlLk6GJQsqaUBKTNV-1" source="zCwe8vPM_0zqtgJZevNM-12">
          <mxGeometry relative="1" as="geometry">
            <mxPoint x="414" y="990" as="targetPoint" />
          </mxGeometry>
        </mxCell>
        <mxCell id="zCwe8vPM_0zqtgJZevNM-12" value="¿(X%5 y X%3)&amp;nbsp;&lt;div&gt;y&amp;nbsp;&lt;div&gt;&lt;span style=&quot;background-color: transparent; color: light-dark(rgb(0, 0, 0), rgb(255, 255, 255));&quot;&gt;(X%6 y X%7)&amp;nbsp;&lt;/span&gt;&lt;/div&gt;&lt;div&gt;&lt;span style=&quot;background-color: transparent; color: light-dark(rgb(0, 0, 0), rgb(255, 255, 255));&quot;&gt;es igual a 0?&lt;/span&gt;&lt;/div&gt;&lt;/div&gt;" style="rhombus;whiteSpace=wrap;html=1;" vertex="1" parent="WIyWlLk6GJQsqaUBKTNV-1">
          <mxGeometry x="319" y="730" width="189" height="210" as="geometry" />
        </mxCell>
        <mxCell id="zCwe8vPM_0zqtgJZevNM-14" value="Decir: &quot;Rosa&quot;." style="shape=parallelogram;perimeter=parallelogramPerimeter;whiteSpace=wrap;html=1;fixedSize=1;" vertex="1" parent="WIyWlLk6GJQsqaUBKTNV-1">
          <mxGeometry x="560" y="547.5" width="180" height="105" as="geometry" />
        </mxCell>
        <mxCell id="zCwe8vPM_0zqtgJZevNM-15" value="Decir: &quot;Violeta&quot;." style="shape=parallelogram;perimeter=parallelogramPerimeter;whiteSpace=wrap;html=1;fixedSize=1;" vertex="1" parent="WIyWlLk6GJQsqaUBKTNV-1">
          <mxGeometry x="560" y="782.5" width="180" height="105" as="geometry" />
        </mxCell>
        <mxCell id="zCwe8vPM_0zqtgJZevNM-18" value="No" style="text;html=1;align=center;verticalAlign=middle;whiteSpace=wrap;rounded=0;" vertex="1" parent="WIyWlLk6GJQsqaUBKTNV-1">
          <mxGeometry x="354" y="700" width="60" height="30" as="geometry" />
        </mxCell>
        <mxCell id="zCwe8vPM_0zqtgJZevNM-19" value="Sí" style="text;html=1;align=center;verticalAlign=middle;whiteSpace=wrap;rounded=0;" vertex="1" parent="WIyWlLk6GJQsqaUBKTNV-1">
          <mxGeometry x="500" y="570" width="60" height="30" as="geometry" />
        </mxCell>
        <mxCell id="zCwe8vPM_0zqtgJZevNM-20" value="Sí" style="text;html=1;align=center;verticalAlign=middle;whiteSpace=wrap;rounded=0;" vertex="1" parent="WIyWlLk6GJQsqaUBKTNV-1">
          <mxGeometry x="500" y="800" width="60" height="30" as="geometry" />
        </mxCell>
        <mxCell id="zCwe8vPM_0zqtgJZevNM-23" value="Fin" style="ellipse;whiteSpace=wrap;html=1;" vertex="1" parent="WIyWlLk6GJQsqaUBKTNV-1">
          <mxGeometry x="374" y="990" width="80" height="80" as="geometry" />
        </mxCell>
        <mxCell id="zCwe8vPM_0zqtgJZevNM-25" value="No" style="text;html=1;align=center;verticalAlign=middle;whiteSpace=wrap;rounded=0;" vertex="1" parent="WIyWlLk6GJQsqaUBKTNV-1">
          <mxGeometry x="354" y="950" width="60" height="30" as="geometry" />
        </mxCell>
      </root>
    </mxGraphModel>
  </diagram>
</mxfile>
